<?xml version="1.0" encoding="UTF-8"?>
<svg xmlns="http://www.w3.org/2000/svg" xmlns:xlink="http://www.w3.org/1999/xlink" width="14pt" height="19pt" viewBox="0 0 14 19" version="1.1">
<g id="surface1">
<path style="fill-rule:evenodd;fill:rgb(100%,49.803922%,0%);fill-opacity:1;stroke-width:15;stroke-linecap:round;stroke-linejoin:round;stroke:rgb(0%,0%,0%);stroke-opacity:1;stroke-miterlimit:4;" d="M 356.223214 141.881579 L 387.569196 324.208059 L 66.428571 285.925987 L 66.428571 528.811678 L 387.569196 490.313322 L 356.223214 661.609375 L 669.890625 407.260691 Z M 356.223214 141.881579 " transform="matrix(0.0188172,0,0,0.0180608,0,0)"/>
<path style="fill-rule:evenodd;fill:rgb(100%,49.803922%,0%);fill-opacity:1;stroke-width:15;stroke-linecap:round;stroke-linejoin:round;stroke:rgb(0%,0%,0%);stroke-opacity:1;stroke-miterlimit:4;" d="M 356.294086 141.843263 L 387.53484 324.27397 L 66.413891 285.750981 L 66.413891 528.844327 L 387.53484 490.321337 L 356.294086 661.460824 L 669.97676 407.297654 Z M 356.294086 141.843263 " transform="matrix(0.0183804,0,0,0.0176437,0.212877,0.235643)"/>
<path style="fill-rule:evenodd;fill:rgb(100%,49.803922%,0%);fill-opacity:1;stroke-width:15;stroke-linecap:round;stroke-linejoin:round;stroke:rgb(0%,0%,0%);stroke-opacity:1;stroke-miterlimit:4;" d="M 356.395089 141.830592 L 387.533482 324.373355 L 66.392857 285.875 L 66.392857 528.976974 L 387.533482 490.478618 L 356.395089 661.558388 L 669.854911 407.425987 Z M 356.395089 141.830592 " transform="matrix(0.0188172,0,0,0.0180608,0.188172,0.180608)"/>
</g>
</svg>
